# xmcd
#
# Track frame offsets: 
#        150
#        17855
#        33167
#        51372
#
# Disc length: 864 seconds
#
# Revision: 6
# Processed by: cddbd v1.5.2PL0 Copyright (c) Steve Scherf et al.
# Submitted via: ExactAudioCopy v1.0b3
#
DISCID=2b035e04
DTITLE=Simply Red - Montreux EP
DYEAR=1992
DGENRE=Pop
TTITLE0=Love For Sale (live)
TTITLE1=Drowning In My Own Tears (live)
TTITLE2=Granma's Hands (live)
TTITLE3=Lady Godiva's Room (live)
EXTD=
EXTT0=Recorded Live At The Monteaux Jazz Festival, 8/07/92.
EXTT1=Recorded Live At The Monteaux Jazz Festival, 8/07/92.
EXTT2=Recorded Live At The Monteaux Jazz Festival, 8/07/92.
EXTT3=Recorded Live At The Monteaux Jazz Festival, 8/07/92.
PLAYORDER=
